<svg xmlns="http://www.w3.org/2000/svg" viewBox="0 0 512 512">
  <defs>
    <linearGradient id="bg" x1="0%" y1="0%" x2="100%" y2="100%">
      <stop offset="0%" stop-color="#102238" />
      <stop offset="100%" stop-color="#0a4f67" />
    </linearGradient>
    <linearGradient id="accent" x1="0%" y1="0%" x2="100%" y2="100%">
      <stop offset="0%" stop-color="#5bbdff" />
      <stop offset="100%" stop-color="#65f0c5" />
    </linearGradient>
  </defs>
  <rect width="512" height="512" rx="108" fill="url(#bg)" />
  <rect x="86" y="86" width="340" height="340" rx="78" fill="#0a1322" stroke="#2e4d6e" stroke-width="10" />
  <path d="M145 324V188h67c45 0 71 22 71 57 0 36-26 57-71 57h-32v22h-35zm35-49h29c26 0 39-10 39-30 0-20-13-30-39-30h-29v60z" fill="#f2f5ff"/>
  <path d="M302 188h65c35 0 56 19 56 47 0 18-9 32-26 40 20 8 31 24 31 45 0 31-24 53-63 53h-63V188zm35 75h26c16 0 25-8 25-22s-9-22-25-22h-26v44zm0 80h29c18 0 28-9 28-24 0-16-10-24-28-24h-29v48z" fill="url(#accent)"/>
</svg>
