<svg xmlns="http://www.w3.org/2000/svg" viewBox="0 0 1280 800" role="img" aria-labelledby="title desc">
  <title id="title">SitePulse Studio SEO Preview</title>
  <desc id="desc">SEO panel mock with checklist, indexing diagnostics and technical score.</desc>
  <defs>
    <linearGradient id="bg" x1="0%" y1="0%" x2="100%" y2="100%">
      <stop offset="0%" stop-color="#07172F" />
      <stop offset="100%" stop-color="#051121" />
    </linearGradient>
  </defs>
  <rect width="1280" height="800" fill="#020814" />
  <rect x="44" y="40" width="1192" height="720" rx="20" fill="url(#bg)" stroke="#1D3D66" />
  <rect x="44" y="40" width="1192" height="64" rx="20" fill="#0A203D" />
  <text x="88" y="79" fill="#D7E9FF" font-family="'Segoe UI', sans-serif" font-size="24" font-weight="700">
    SitePulse Studio - SEO Technical Audit
  </text>
  <rect x="80" y="140" width="360" height="560" rx="16" fill="#0A1D38" stroke="#254A77" />
  <text x="106" y="184" fill="#9CC9FF" font-family="'Segoe UI', sans-serif" font-size="20" font-weight="600">
    SEO checklist
  </text>
  <rect x="106" y="214" width="308" height="58" rx="10" fill="#0F2B4E" />
  <rect x="106" y="286" width="308" height="58" rx="10" fill="#0F2B4E" />
  <rect x="106" y="358" width="308" height="58" rx="10" fill="#0F2B4E" />
  <rect x="106" y="430" width="308" height="58" rx="10" fill="#0F2B4E" />
  <rect x="106" y="502" width="308" height="58" rx="10" fill="#0F2B4E" />
  <text x="126" y="249" fill="#E5F2FF" font-family="'Segoe UI', sans-serif" font-size="18">Meta title and description</text>
  <text x="126" y="321" fill="#E5F2FF" font-family="'Segoe UI', sans-serif" font-size="18">Canonical and robots policy</text>
  <text x="126" y="393" fill="#E5F2FF" font-family="'Segoe UI', sans-serif" font-size="18">Open Graph and Twitter tags</text>
  <text x="126" y="465" fill="#E5F2FF" font-family="'Segoe UI', sans-serif" font-size="18">Structured headings and links</text>
  <text x="126" y="537" fill="#E5F2FF" font-family="'Segoe UI', sans-serif" font-size="18">Indexing blockers and redirects</text>
  <rect x="470" y="140" width="726" height="260" rx="16" fill="#0A1D38" stroke="#254A77" />
  <text x="500" y="184" fill="#DCEBFF" font-family="'Segoe UI', sans-serif" font-size="30" font-weight="800">
    Technical health score
  </text>
  <circle cx="635" cy="284" r="78" fill="none" stroke="#1E3E66" stroke-width="18" />
  <circle
    cx="635"
    cy="284"
    r="78"
    fill="none"
    stroke="#6AEBA9"
    stroke-width="18"
    stroke-dasharray="430"
    stroke-dashoffset="65"
    stroke-linecap="round"
    transform="rotate(-90 635 284)"
  />
  <text x="607" y="298" fill="#E9FFF2" font-family="'Segoe UI', sans-serif" font-size="34" font-weight="800">92</text>
  <rect x="748" y="228" width="418" height="48" rx="9" fill="#102A4D" />
  <rect x="748" y="290" width="418" height="48" rx="9" fill="#102A4D" />
  <text x="770" y="260" fill="#DCEBFF" font-family="'Segoe UI', sans-serif" font-size="18">
    Indexability check: PASS
  </text>
  <text x="770" y="322" fill="#DCEBFF" font-family="'Segoe UI', sans-serif" font-size="18">
    Crawl efficiency: GOOD
  </text>
  <rect x="470" y="430" width="726" height="270" rx="16" fill="#0A1D38" stroke="#254A77" />
  <text x="500" y="472" fill="#DCEBFF" font-family="'Segoe UI', sans-serif" font-size="24" font-weight="700">
    Suggested actions before publish
  </text>
  <rect x="500" y="500" width="666" height="52" rx="8" fill="#12345D" />
  <rect x="500" y="566" width="666" height="52" rx="8" fill="#12345D" />
  <text x="522" y="533" fill="#E4F1FF" font-family="'Segoe UI', sans-serif" font-size="18">
    Normalize hreflang tags for regional pages
  </text>
  <text x="522" y="599" fill="#E4F1FF" font-family="'Segoe UI', sans-serif" font-size="18">
    Fix redirect loop in download campaign landing
  </text>
</svg>
